{
    "asset": {
        "copyright": "(C)2018 darcy.paterson",
        "generator": "Maya2glTF V0.9.7-BETA ab18f62",
        "version": "2.0"
    },
    "scenes": [
        {
            "nodes": [
                0
            ]
        }
    ],
    "scene": 0,
    "nodes": [
        {
            "children": [
                1
            ],
            "translation": [
                1.91144335269928,
                0.3417121171951294,
                -2.127981424331665
            ],
            "rotation": [
                0.5,
                -0.5,
                0.5,
                0.5
            ],
            "scale": [
                0.2690473794937134,
                2.2798237800598146,
                0.5699559450149536
            ],
            "name": "pPlane3"
        },
        {
            "mesh": 0,
            "name": "pPlaneShape3"
        }
    ],
    "meshes": [
        {
            "primitives": [
                {
                    "attributes": {
                        "NORMAL": 1,
                        "POSITION": 2,
                        "TANGENT": 3,
                        "TEXCOORD_0": 4
                    },
                    "indices": 0,
                    "mode": 4,
                    "material": 0
                }
            ],
            "name": "pPlaneShape3"
        }
    ],
    "accessors": [
        {
            "bufferView": 0,
            "byteOffset": 0,
            "componentType": 5123,
            "count": 600,
            "max": [
                120
            ],
            "min": [
                0
            ],
            "type": "SCALAR"
        },
        {
            "bufferView": 1,
            "byteOffset": 0,
            "componentType": 5126,
            "count": 121,
            "max": [
                -0.9999999403953552,
                -8.326669508315122e-16,
                5.551115123125784e-16
            ],
            "min": [
                -0.9999999403953552,
                -8.32667427287545e-16,
                5.551115123125784e-16
            ],
            "type": "VEC3"
        },
        {
            "bufferView": 1,
            "byteOffset": 1452,
            "componentType": 5126,
            "count": 121,
            "max": [
                0.5,
                1.1102230246251566e-16,
                0.5
            ],
            "min": [
                -0.5,
                -1.1102230246251566e-16,
                -0.5
            ],
            "type": "VEC3"
        },
        {
            "bufferView": 2,
            "byteOffset": 0,
            "componentType": 5126,
            "count": 121,
            "max": [
                4.996003610813204e-16,
                -2.7733391199176199e-32,
                1.0,
                1.0
            ],
            "min": [
                4.996003610813204e-16,
                -2.7733391199176199e-32,
                1.0,
                1.0
            ],
            "type": "VEC4"
        },
        {
            "bufferView": 3,
            "byteOffset": 0,
            "componentType": 5126,
            "count": 121,
            "max": [
                1.0,
                1.0
            ],
            "min": [
                0.0,
                0.0
            ],
            "type": "VEC2"
        }
    ],
    "materials": [
        {
            "pbrMetallicRoughness": {
                "baseColorFactor": [
                    0.800000011920929,
                    0.800000011920929,
                    0.800000011920929,
                    1.0
                ],
                "baseColorTexture": {
                    "index": 0
                },
                "metallicFactor": 0.0,
                "roughnessFactor": 1.0
            },
            "alphaMode": "BLEND"
        }
    ],
    "textures": [
        {
            "sampler": 0,
            "source": 0
        }
    ],
    "images": [
        {
            "uri": "woman.png"
        }
    ],
    "samplers": [
        {
            "magFilter": 9729,
            "minFilter": 9987,
            "wrapS": 10497,
            "wrapT": 10497
        }
    ],
    "bufferViews": [
        {
            "buffer": 0,
            "byteOffset": 5808,
            "byteLength": 1200,
            "target": 34963
        },
        {
            "buffer": 0,
            "byteOffset": 1936,
            "byteLength": 2904,
            "byteStride": 12,
            "target": 34962
        },
        {
            "buffer": 0,
            "byteOffset": 0,
            "byteLength": 1936,
            "byteStride": 16,
            "target": 34962
        },
        {
            "buffer": 0,
            "byteOffset": 4840,
            "byteLength": 968,
            "byteStride": 8,
            "target": 34962
        }
    ],
    "buffers": [
        {
            "byteLength": 7008,
            "uri": "bp_scene_6_woman0.bin"
        }
    ]
}
