<svg id="Layer_1" data-name="Layer 1" xmlns="http://www.w3.org/2000/svg" viewBox="0 0 1366 768"><defs><style>.cls-1{fill:#4b422c;}.cls-2{fill:#685b3e;}.cls-3{fill:none;stroke:#342f2c;stroke-miterlimit:10;stroke-width:40px;}</style></defs><title>car-interior</title><path class="cls-1" d="M1068.71,378.23,1121.77,175c2.36-10.58,7.84-19.24,15.08-23.8l231.28-34.1V0H0V117.72l227.15,33.49c7.24,4.56,12.72,13.22,15.08,23.8l53.06,203.22c7.67,37,.23,76.91-19.39,104.06L0,577.59V768H1368.13V579l-280-96.72C1068.48,455.14,1061,415.25,1068.71,378.23Zm-61.87,31.44C991.3,462.85,938.6,462.85,896,462.85H468c-42.58,0-95.28,0-110.82-53.18,0,0-74-249.3-27.87-249.3L682,165l352.71-4.62C1080.84,160.37,1006.84,409.67,1006.84,409.67Z"/><path class="cls-2" d="M1104.18,527l-2.55-6.1c-4.81-11.51-15.57-21.21-30-27.06l-24.63-10a82.78,82.78,0,0,0-30.93-5.85H699.19c-1.75,0-3.47.06-5.19.17-1.72-.11-3.44-.17-5.19-.17H371.92A82.78,82.78,0,0,0,341,483.85l-24.63,10c-14.42,5.85-25.18,15.55-30,27.06l-2.55,6.1c-12.49,29.86,18.13,60,60.93,60H689.67c1.46,0,2.9,0,4.33-.12s2.87.12,4.33.12h344.92C1086.05,587,1116.67,556.84,1104.18,527Z"/><circle class="cls-3" cx="499.23" cy="569.19" r="139.42"/></svg>