<svg id="Layer_1" data-name="Layer 1" xmlns="http://www.w3.org/2000/svg" viewBox="0 0 546 236"><defs><style>.cls-1{fill:#fff;}</style></defs><title>cloud-2</title><path class="cls-1" d="M503,84a43,43,0,0,0-37,21.15,56,56,0,0,0-82.2-26.28,38.89,38.89,0,0,0-14.7-7.55l-.86-1a42,42,0,1,0-74.06-37.62A68,68,0,0,0,168,68c0,.78,0,1.55.06,2.33A77,77,0,0,0,106.41,112a56.75,56.75,0,0,0-28.49,8,44,44,0,1,0-23.6,70.79,57,57,0,0,0,85.58,24.76,77,77,0,0,0,84.32-9.32,99,99,0,0,0,162.3-31.42,56,56,0,0,0,79-26.76A43,43,0,1,0,503,84Z"/></svg>