<svg id="Layer_1" data-name="Layer 1" xmlns="http://www.w3.org/2000/svg" viewBox="0 0 552 268"><defs><style>.cls-1{fill:#fff;}</style></defs><title>cloud-1</title><path class="cls-1" d="M519,174a33.13,33.13,0,0,0-5,.38,44,44,0,1,0-81-34.29,51.5,51.5,0,0,0-13,2.43A67.93,67.93,0,0,0,362,110l-.78,0A88,88,0,1,0,188,86h-1a90.56,90.56,0,0,0-47.61,13.44A58,58,0,1,0,66,189,38.26,38.26,0,0,0,53.7,203.62a30,30,0,1,0,1.22,35.08,38,38,0,0,0,65.79.64,91,91,0,0,0,133.67-1.17,41,41,0,0,0,61.73-10,68,68,0,0,0,86.93,4,52,52,0,0,0,83-26c0,.27,0,.53,0,.8a33,33,0,1,0,33-33Z"/></svg>