<svg id="Layer_1" data-name="Layer 1" xmlns="http://www.w3.org/2000/svg" viewBox="0 0 542 272"><defs><style>.cls-1{fill:#fff;}</style></defs><title>cloud-3</title><path class="cls-1" d="M518,180a23.89,23.89,0,0,0-15.27,5.49,44,44,0,0,0-64.52-27.71A73,73,0,0,0,369,108c-2.35,0-4.66.12-6.95.34a83,83,0,1,0-161.46-35.1,65,65,0,0,0-87.7,79,59.78,59.78,0,0,0-28.73,10.22A48,48,0,1,0,64.47,239.1,60,60,0,0,0,157.64,257a62,62,0,0,0,66.68-11.73,62,62,0,0,0,85.2-22,73,73,0,0,0,117.57,1.9,44,44,0,0,0,71.19-7.51A24,24,0,1,0,518,180Z"/></svg>